<?xml version="1.0" standalone="no"?>
<!DOCTYPE svg PUBLIC "-//W3C//DTD SVG 20010904//EN"
 "http://www.w3.org/TR/2001/REC-SVG-20010904/DTD/svg10.dtd">
<svg version="1.0" xmlns="http://www.w3.org/2000/svg"
 width="512.000000pt" height="512.000000pt" viewBox="0 0 512.000000 512.000000"
 preserveAspectRatio="xMidYMid meet">
<metadata>
Created by potrace 1.11, written by Peter Selinger 2001-2013
</metadata>
<g transform="translate(0.000000,512.000000) scale(0.100000,-0.100000)"
fill="#000000" stroke="none">
<path d="M0 2560 l0 -2560 2560 0 2560 0 0 2560 0 2560 -2560 0 -2560 0 0
-2560z m788 640 c30 -85 81 -235 115 -334 44 -128 63 -173 68 -160 5 11 36
109 69 219 34 110 78 252 98 315 l37 115 133 3 c129 3 132 2 142 -20 5 -13 51
-161 102 -330 51 -169 96 -308 99 -308 3 0 54 141 113 313 60 171 112 320 117
330 9 15 26 17 144 17 86 0 135 -4 135 -10 0 -6 -84 -250 -186 -543 -102 -293
-193 -551 -201 -574 l-15 -43 -97 0 -98 0 -123 393 c-68 215 -126 395 -129
399 -3 4 -62 -173 -131 -393 l-125 -400 -98 3 -99 3 -199 569 c-109 313 -199
576 -199 583 0 11 28 13 138 11 l137 -3 53 -155z m1968 -55 c67 -115 126 -210
130 -209 5 0 36 48 69 105 33 58 88 153 123 212 l63 107 136 0 c124 0 135 -1
131 -17 -3 -10 -91 -168 -196 -352 l-192 -335 0 -233 0 -233 -135 0 -135 0 0
234 0 234 -195 341 c-107 187 -195 345 -195 351 0 7 47 10 137 8 l136 -3 123
-210z m-1571 -1323 c78 -24 166 -68 206 -101 l32 -27 -63 -89 c-35 -50 -64
-91 -65 -93 -1 -1 -29 14 -61 33 -149 90 -324 100 -378 23 -18 -26 -21 -80 -6
-109 16 -29 73 -54 215 -94 149 -42 220 -74 281 -128 56 -49 80 -96 94 -179
20 -126 -16 -227 -110 -311 -61 -55 -135 -85 -245 -99 -172 -23 -383 43 -529
167 l-39 33 73 88 c40 49 76 90 80 92 5 2 36 -17 70 -42 146 -108 297 -141
388 -86 73 45 58 145 -28 187 -25 12 -97 36 -160 53 -277 75 -370 166 -370
361 0 91 24 161 77 220 48 52 138 103 213 119 70 14 255 4 325 -18z m2884 -5
c80 -28 159 -76 227 -139 51 -47 54 -38 -50 -153 l-66 -74 -48 45 c-26 25 -72
57 -102 72 -49 24 -66 27 -155 27 -89 0 -107 -3 -162 -29 -69 -31 -128 -88
-165 -158 -20 -38 -23 -57 -23 -163 0 -111 2 -124 27 -170 34 -65 92 -123 154
-155 43 -22 62 -25 154 -25 95 0 110 3 163 29 32 15 77 46 99 67 23 21 44 39
47 39 4 0 42 -36 86 -81 l80 -81 -67 -62 c-122 -114 -239 -160 -408 -160 -188
0 -317 51 -440 174 -81 81 -127 159 -155 265 -20 77 -20 239 1 318 55 213 231
383 449 433 95 22 263 13 354 -19z m-1566 -72 c16 -38 124 -288 239 -555 116
-267 214 -495 219 -507 l9 -23 -139 0 -138 0 -54 125 -54 125 -244 -2 -245 -3
-52 -120 -53 -120 -140 -3 -139 -3 109 253 c61 139 174 400 251 581 l142 328
129 -3 130 -3 30 -70z"/>
<path d="M2325 1437 c-8 -20 -40 -93 -70 -162 -30 -70 -55 -128 -55 -131 0 -2
63 -4 140 -4 77 0 140 4 140 8 0 8 -130 314 -136 321 -2 2 -11 -12 -19 -32z"/>
</g>
</svg>
